# xmcd
#
# Track frame offsets:
#   150
#   13394
#   27153
#   42583
#   52653
#   68228
#   83425
#   96639
#   110945
#   125556
#   144438
#   163461
#   193422
#   222451
#   237236
#   254302
#   270575
#   295018
#   308217
#   333280
#
# Disc length: 4655 seconds
#
# Revision: 0
# Processed by: cddbd v1.5PL3 Copyright (c) Steve Scherf et al.
# Submitted via: Media_Universe 3.0
#
DISCID=36122d14
DTITLE=Tim McGraw - Tim McGraw and mixed
DYEAR=1900
DGENRE=Country
TTITLE0=Welcome To The Club
TTITLE1=Two Steppin' Mind
TTITLE2=The Only Thing That I Have Left
TTITLE3=You Can Take It With You (When You Go)
TTITLE4=Memory Lane
TTITLE5=Tears In The Rain
TTITLE6=What She Left Behind
TTITLE7=What Room Was The Holiday In
TTITLE8=I Keep It under My Hat
TTITLE9=Two Sparrows In A Hurricane
TTITLE10=Let's Make Love
TTITLE11=Stand By Me
TTITLE12=Gin And Juice
TTITLE13=All We Ever Find
TTITLE14=It's Your Love
TTITLE15=Good Morning Beautiful
TTITLE16=When You Cry
TTITLE17=Baby I Love You
TTITLE18=What's In It For Me
TTITLE19=I Got My Baby
EXTD=
EXTT0=
EXTT1=
EXTT2=
EXTT3=
EXTT4=
EXTT5=
EXTT6=
EXTT7=
EXTT8=
EXTT9=
EXTT10=
EXTT11=
EXTT12=
EXTT13=
EXTT14=
EXTT15=
EXTT16=
EXTT17=
EXTT18=
EXTT19=
PLAYORDER=
